<svg xmlns="http://www.w3.org/2000/svg" width="24" height="24" fill="none">
<path d="M12 15.3a3.3 3.3 0 1 0 0-6.6 3.3 3.3 0 0 0 0 6.6z" stroke="white" stroke-opacity="0.9" stroke-width="1.6"/>
<path d="M19.2 12a7.2 7.2 0 0 0-.1-1l2-1.5-2-3.4-2.4.8a7.6 7.6 0 0 0-1.7-1l-.4-2.5H9.4L9 5.9c-.6.2-1.2.6-1.7 1l-2.4-.8-2 3.4 2 1.5a7.2 7.2 0 0 0 0 2l-2 1.5 2 3.4 2.4-.8c.5.4 1.1.8 1.7 1l.4 2.5h5.2l.4-2.5c.6-.2 1.2-.6 1.7-1l2.4.8 2-3.4-2-1.5c.1-.3.1-.7.1-1z" stroke="white" stroke-opacity="0.9" stroke-width="1.3" stroke-linejoin="round"/>
</svg>